<?xml version='1.0' encoding='utf-8'?>
<!DOCTYPE svg PUBLIC '-//W3C//DTD SVG 1.1//EN' 'http://www.w3.org/Graphics/SVG/1.1/DTD/svg11.dtd'>
<!-- Uploaded to: SVG Repo, www.svgrepo.com, Generator: SVG Repo Mixer Tools -->
<svg fill="#000000" height="800px" width="800px" version="1.1" xmlns="http://www.w3.org/2000/svg" viewBox="0 0 512 512" xmlns:xlink="http://www.w3.org/1999/xlink" enable-background="new 0 0 512 512">
  <g>
    <g>
      <g>
        <path d="m198.3,307.4v-78.3l20.8,20.8c7.9,7.9 20.8,7.9 28.7,0 7.9-7.9 7.9-20.8 0-28.7l-55.6-55.5c-7.9-7.9-20.8-7.9-28.7,0l-55.5,55.5c-7.9,7.9-7.9,20.8 0,28.7 7.9,7.9 20.8,7.9 28.7,0l20.8-20.8v78.3h-44.1c-33.1,0-60.1-26.5-60.2-59.1 0-9.8 2.3-19.2 6.8-27.8 4.7-8.9 5.9-19.3 3.2-29.2-2.5-9.2-3.7-18.8-3.7-28.5 0-29.4 11.6-57 32.7-77.8 20.9-20.7 48.4-32 77.5-32 0.3,0 0.5,0 0.8,0 36.8,0.2 70.8,18.7 91.2,49.3 10.4,15.7 30.2,22.1 47.9,15.5 7.7-2.9 15.9-4.4 24.3-4.4 32,0 59.7,21.6 67.4,52.5 3.1,12.3 11.9,22.6 23.5,27.6 22,9.4 36.2,30.8 36.1,54.7-0.1,32.6-27.1,59.2-60.2,59.2h-45.8v-35.4c0-11.3-9.1-20.4-20.4-20.4-11.3,0-20.4,9.1-20.4,20.4v35.4h-115.8zm202.4,41c55.8,0 101.2-44.9 101.3-100.1 0.1-40.3-23.8-76.5-60.9-92.4-5.9-23.4-19.6-44.6-38.6-59.6-19.4-15.4-43.8-23.8-68.6-23.8-13.1,0-26,2.3-38.2,6.8-28.1-41.8-74.7-67-125-67.3-40.5-0.3-78.7,15.3-107.6,43.9-28.9,28.6-44.8,66.6-44.8,106.9 0,13.2 1.7,26.2 5,38.9-7.5,14.3-11.4,30.5-11.4,46.7 0.2,55.1 45.7,100 101.4,100h44.1v41.2c0,11.3 9.1,20.4 20.4,20.4 11.3,0 20.4-9.1 20.4-20.4v-41.2h115.8v84.2l-20.8-20.8c-7.9-7.9-20.8-7.9-28.7,0-7.9,7.9-7.9,20.8 0,28.7l55.6,55.5c7.9,7.9 20.8,7.9 28.7,0l55.6-55.5c7.9-7.9 7.9-20.8 0-28.7-7.9-7.9-20.8-7.9-28.7,0l-20.8,20.8v-84.2h45.8v-5.68434e-14z"/>
      </g>
    </g>
  </g>
</svg>